<svg viewBox="0 0 105 63" fill="none" xmlns="http://www.w3.org/2000/svg"><g clip-path="url(#a)"><path d="M7.68 22h2.65v-5.63h-1.29v-16.3h-2.9v16.3h-1.78v-16.3h-2.91v19.22h6.23v2.7Zm3.32-21.93v19.22h6.77v-2.92h-3.86v-5.56h2.9v-2.92h-2.9v-5.03h3.7v-2.8h-6.6Zm12.4 19.22h2.92v-19.22h-2.91v7.7h-1.98v-7.7h-2.91v19.22h2.9v-8.45h1.99v8.45Zm11.4-16.43v-2.8h-7.77v2.8h2.45v16.43h2.88v-16.43h2.45Zm5.35 8.44c1.98 0 2.98-1.24 2.98-3.51v-4.55c0-2.3-.93-3.17-2.98-3.17h-4.61v19.22h2.9v-7.99h1.7Zm-1.7-8.63h.74c.85 0 1 .57 1 1.32v3.15c0 .78-.12 1.4-1 1.4h-.74v-5.87Zm-21.22 36.8h3l-3-10.28 2.7-8.94h-2.82l-2.3 7.7v-7.7h-2.9v19.22h2.9v-8.34l2.42 8.34Zm7.98-7.98c1.98 0 2.99-1.24 2.99-3.52v-4.54c0-2.3-.93-3.18-2.99-3.18h-4.6v19.22h2.9v-7.98h1.7Zm-1.7-8.63h.75c.85 0 1 .57 1 1.32v3.15c0 .77-.13 1.4-1 1.4h-.75v-5.87Zm5.57-2.61v19.22h6.77v-2.92h-3.86v-5.55h2.9v-2.92h-2.9v-5.04h3.7v-2.8h-6.61Zm12.6 19.22h2.81l-2.5-19.22h-3.45l-2.34 19.22h2.6l.39-3.62h2.1l.4 3.62Zm-2.2-6.48.74-7.1.77 7.1h-1.52Zm11.7-9.95v-2.8h-7.78v2.8h2.44v16.43h2.89v-16.43h2.44Zm5.72 16.43h2.9v-19.22h-2.9l-2.09 10.41v-10.41h-2.9v19.22h2.9l2.09-10.41v10.41Zm3.98 0h4.79c2.18 0 3.09-1.47 3.09-3.51v-4.16c0-1.91-.9-2.56-1.68-2.82.75-.28 1.44-1.06 1.44-2.66v-2.94c0-1.87-.64-3.13-3.06-3.13h-4.58v19.22Zm3.78-16.61c.8 0 1 .44 1 1.21v2.43c0 .8-.23 1.34-1 1.34h-.87v-4.98h.87Zm0 7.85c.93 0 1.13.44 1.13 1.24v3.52c0 .85-.2 1.29-1.13 1.29h-.87v-6.05h.87Zm9.88 8.76h2.91v-19.22h-2.9v7.7h-1.99v-7.7h-2.9v19.22h2.9v-8.45h1.98v8.45Zm11.86-15.01c0-2.64-.9-4.4-3.73-4.4h-.49c-2.73 0-3.73 1.77-3.73 4.43v10.7c0 2.68.98 4.51 3.76 4.51h.49c2.8 0 3.7-1.83 3.7-4.52v-10.72Zm-2.96 10.93c0 .83-.2 1.47-.98 1.47-.82 0-1.05-.64-1.05-1.47v-11.06c0-.98.28-1.47 1.03-1.47.67 0 1 .46 1 1.47v11.06Zm3.96 4.08h2.9v-16.43h2.94v-2.8h-5.84v19.23Zm14.44-15.01c0-2.64-.9-4.4-3.73-4.4h-.5c-2.72 0-3.73 1.77-3.73 4.43v10.7c0 2.68.98 4.51 3.76 4.51h.5c2.8 0 3.7-1.83 3.7-4.52v-10.72Zm-2.96 10.93c0 .83-.2 1.47-.98 1.47-.82 0-1.06-.64-1.06-1.47v-11.06c0-.98.29-1.47 1.03-1.47.67 0 1 .46 1 1.47v11.06Zm-90.15 26.98h2.65v-5.64h-1.28v-16.3h-7.31c0 7.86-.06 11.63-.39 13.88a8.82 8.82 0 0 1-.72 2.42h-.64v5.64h2.65v-2.72h5.04v2.72Zm-3.6-7.99c.28-2.01.38-5.22.38-11.16h1.68v13.51h-2.63c.23-.62.44-1.34.57-2.35Zm6.93-13.95v19.22h6.77v-2.92h-3.86v-5.55h2.9v-2.92h-2.9v-5.04h3.7v-2.79h-6.61Zm7.51 19.22h4.8c2.18 0 3.08-1.47 3.08-3.5v-4.17c0-1.91-.9-2.56-1.67-2.81.74-.29 1.44-1.06 1.44-2.67v-2.94c0-1.86-.64-3.13-3.06-3.13h-4.59v19.22Zm3.79-16.6c.8 0 1 .43 1 1.2v2.43c0 .8-.23 1.35-1 1.35h-.88v-4.99h.88Zm0 7.85c.92 0 1.13.44 1.13 1.24v3.51c0 .85-.2 1.3-1.13 1.3h-.88v-6.05h.88Zm4.99-10.47v19.22h6.77v-2.92h-3.86v-5.55h2.9v-2.92h-2.9v-5.04h3.7v-2.79h-6.61Zm12.94 19.22h2.91v-19.22h-7.34c0 10.1 0 13-.18 14.96-.07.9-.2 1.3-.9 1.3h-.2v2.96h.72c2.21 0 2.88-1.08 3.04-3.02.23-2.79.25-7.2.25-13.4h1.7v16.42Zm11.88-15c0-2.64-.9-4.4-3.73-4.4h-.5c-2.72 0-3.73 1.76-3.73 4.42v10.7c0 2.68.98 4.52 3.76 4.52h.5c2.8 0 3.7-1.84 3.7-4.52v-10.73Zm-2.96 10.92c0 .83-.2 1.47-.98 1.47-.82 0-1.06-.64-1.06-1.47v-11.06c0-.98.29-1.47 1.03-1.47.67 0 1 .47 1 1.47v11.06Zm3.96 4.08h2.9v-16.43h1.78v16.43h2.91v-19.22h-7.6v19.22Zm8.67 0h2.6v-12.42l1.78 12.42h1.15l1.75-12.42v12.42h2.73v-19.22h-3.47l-1.42 10.16-1.39-10.16h-3.73v19.22Zm11.09-19.22v19.22h6.77v-2.92h-3.87v-5.55h2.91v-2.92h-2.9v-5.04h3.7v-2.79h-6.61Zm12.4 19.22h2.91v-19.22h-2.9v7.7h-1.99v-7.7h-2.9v19.22h2.9v-8.44h1.98v8.44Zm11.4-16.43v-2.79h-7.77v2.8h2.44v16.42h2.88v-16.43h2.45Zm4.5 16.43h2.8l-2.5-19.22h-3.45l-2.34 19.22h2.6l.38-3.61h2.11l.4 3.61Zm-2.22-6.48.74-7.1.78 7.1h-1.52Z" fill="#D8E6F1"/></g><defs><clipPath id="a"><path fill="#fff" transform="translate(.998)" d="M0 0h103.78v62.44h-103.78z"/></clipPath></defs></svg>