<svg viewBox="0 0 137 25" fill="none" xmlns="http://www.w3.org/2000/svg"><g clip-path="url(#a)" fill="#D8E6F1"><path d="M12.84 16.05h9.64v4.29h-9.64zm-12.84 4.25 11.06-9.08-11.06-9.08v5.54l4.32 3.54-4.32 3.54v5.54Z"/></g><path d="M33.76 6.85h3.67v3.16h-3.67v10.2h-3.39v-10.2h-2.16v-3.16h2.16v-.33c0-1.96.44-3.38 1.31-4.27.9-.89 2.3-1.33 4.21-1.33h1.78v3.16h-1.6c-.8 0-1.4.2-1.77.59-.36.39-.54 1-.54 1.85v.33Zm4.74 13.35v-13.35h3.39v1.2c.86-.95 2.17-1.43 3.96-1.43h1.28v3.16h-2.31c-1.05 0-1.8.29-2.26.87-.45.58-.67 1.54-.67 2.88v6.68h-3.4Zm9.46 0v-13.35h3.39v13.36h-3.4Zm1.7-19.13c.73 0 1.25.16 1.56.49.33.3.49.83.49 1.57 0 .71-.16 1.24-.49 1.56-.3.33-.83.49-1.57.49-.72 0-1.24-.16-1.56-.49-.33-.32-.5-.85-.5-1.56 0-.74.17-1.26.5-1.57.32-.33.84-.49 1.56-.49Zm4.72 17.73c-1.08-1.1-1.62-2.86-1.62-5.27 0-2.42.54-4.17 1.62-5.27 1.08-1.1 2.83-1.64 5.24-1.64 2.4 0 4.13.55 5.19 1.64 1.08 1.1 1.62 2.85 1.62 5.27 0 .24-.02.6-.05 1.08h-10.15c.22 1.93 1.36 2.9 3.42 2.9 1.54 0 2.56-.52 3.05-1.57h3.5c-.35 1.66-1.07 2.83-2.19 3.5-1.11.66-2.57 1-4.39 1-2.41 0-4.16-.55-5.24-1.65Zm5.27-9.25c-.96 0-1.73.2-2.29.59-.57.4-.92 1.04-1.08 1.95h6.73c-.15-.9-.51-1.56-1.08-1.95a3.8 3.8 0 0 0-2.28-.6Zm11.52 10.65h-3.4v-13.35h3.4v1.34c.89-1.05 2.33-1.57 4.31-1.57 1.89 0 3.26.48 4.11 1.44.88.96 1.31 2.5 1.31 4.62v7.53h-3.39v-7.53c0-1-.25-1.75-.74-2.2-.48-.47-1.24-.7-2.29-.7-1.18 0-2.03.3-2.54.9-.52.58-.77 1.53-.77 2.85v6.68Zm11.12-6.67c0-2.42.46-4.17 1.39-5.27.94-1.1 2.44-1.64 4.5-1.64s3.56.55 4.49 1.64v-7.32h3.39v19.27h-3.4v-1.42c-.92 1.1-2.42 1.65-4.49 1.65-2.05 0-3.55-.54-4.5-1.62-.92-1.1-1.38-2.86-1.38-5.3Zm6.86 3.75c1.2 0 2.07-.3 2.62-.9.56-.6.85-1.55.85-2.85 0-1.32-.28-2.27-.83-2.85-.54-.6-1.43-.9-2.64-.9-1.22 0-2.1.3-2.67.9-.55.58-.83 1.53-.83 2.85 0 1.3.28 2.25.83 2.85.56.6 1.45.9 2.67.9Zm14.63 2.92v-19.26h3.39v19.27h-3.4Zm6.42-1.4c-1.08-1.1-1.62-2.86-1.62-5.27 0-2.42.54-4.17 1.62-5.27 1.08-1.1 2.83-1.64 5.24-1.64 2.4 0 4.13.55 5.19 1.64 1.08 1.1 1.62 2.85 1.62 5.27 0 .24-.02.6-.05 1.08h-10.15c.22 1.93 1.36 2.9 3.42 2.9 1.54 0 2.56-.52 3.05-1.57h3.5c-.35 1.66-1.07 2.83-2.19 3.5-1.11.66-2.57 1-4.39 1-2.41 0-4.16-.55-5.24-1.65Zm5.27-9.25c-.96 0-1.72.2-2.29.59-.57.4-.93 1.04-1.08 1.95h6.73c-.15-.9-.51-1.56-1.08-1.95a3.8 3.8 0 0 0-2.28-.6Zm9.18 9.25c-1.08-1.1-1.62-2.86-1.62-5.27 0-2.42.54-4.17 1.62-5.27 1.08-1.1 2.83-1.64 5.24-1.64 2.4 0 4.13.55 5.19 1.64 1.08 1.1 1.62 2.85 1.62 5.27 0 .24-.02.6-.05 1.08h-10.15c.22 1.93 1.36 2.9 3.42 2.9 1.54 0 2.56-.52 3.05-1.57h3.5c-.35 1.66-1.07 2.83-2.19 3.5-1.11.66-2.57 1-4.39 1-2.41 0-4.16-.55-5.24-1.65Zm5.27-9.25c-.96 0-1.72.2-2.29.59-.56.4-.92 1.04-1.08 1.95h6.73c-.15-.9-.51-1.56-1.08-1.95-.54-.4-1.3-.6-2.28-.6Z" fill="#D8E6F1"/><defs><clipPath id="a"><path fill="#fff" d="M0 0h22.48v22.48h-22.48z"/></clipPath></defs></svg>