<svg viewBox="0 0 103 24" fill="none" xmlns="http://www.w3.org/2000/svg"><path d="M50.17 7.6a6.47 6.47 0 0 0-1.6 4.48 6.66 6.66 0 0 0 1.59 4.49 5.47 5.47 0 0 0 1.85 1.36 5.91 5.91 0 0 0 4.99-.26 6.28 6.28 0 0 0 1.91-1.42l.6-.7 3.07 3.77a5.53 5.53 0 0 1-1.31 1.54 9.06 9.06 0 0 1-4.03 2.4c-1 .3-2.03.46-3.06.46-3.05 0-5.63-1.15-7.75-3.43a11.65 11.65 0 0 1-3.19-8.2c0-3.19 1.06-5.92 3.18-8.2a10.2 10.2 0 0 1 7.76-3.43 9.69 9.69 0 0 1 5.34 1.57c.57.38 1.1.82 1.62 1.29.37.32.7.69.99 1.1l.31.44-3.23 3.77a6.73 6.73 0 0 0-.85-.99 6 6 0 0 0-4.19-1.83c-1.6 0-2.93.6-4 1.79m13.84-6.51h16.26v5.35h-5.47v16.63h-5.33v-16.63h-5.46v-5.35Zm35.49 2.8a11.61 11.61 0 0 1 3.18 8.2c0 3.17-1.06 5.9-3.18 8.19a10.18 10.18 0 0 1-7.75 3.42c-3.04 0-5.62-1.14-7.74-3.42a11.6 11.6 0 0 1-3.2-8.2c.01-3.18 1.07-5.9 3.19-8.2a10.18 10.18 0 0 1 7.74-3.42 10.2 10.2 0 0 1 7.76 3.43Zm-11.65 3.7a6.55 6.55 0 0 0-1.57 4.5c0 1.79.52 3.29 1.57 4.48a5.26 5.26 0 0 0 3.9 1.8c1.46 0 2.86-.65 3.9-1.8a6.58 6.58 0 0 0 1.56-4.49c0-1.8-.52-3.3-1.57-4.48a5.27 5.27 0 0 0-3.9-1.79c-1.45 0-2.85.64-3.89 1.79Zm-56.33 10.45h10.08v5.03h-15.4v-21.98h15.13v5.03h-9.81v3.45h7.57v4.72h-7.57v3.75Zm-20.32-.3-5.46-7.7v13.03h-5.33v-21.98h4.76l6.02 8.65 6.04-8.65h4.76v21.98h-5.32v-13.03l-5.48 7.7Z" fill="#D8E6F1"/></svg>