<svg viewBox="0 0 220 220" fill="none" xmlns="http://www.w3.org/2000/svg"><circle cx="110" cy="110" r="107" stroke="#D8E6F1" stroke-width="6"/><path d="M8.6 110h201.95" stroke="#D8E6F1" stroke-width="6" stroke-linecap="round"/><path d="M153.4 110c0 30.07-5.14 57.16-13.35 76.62-4.1 9.73-8.92 17.41-14.11 22.62-5.18 5.19-10.56 7.76-15.94 7.76-5.38 0-10.76-2.57-15.94-7.76-5.2-5.2-10-12.9-14.11-22.62-8.2-19.46-13.36-46.55-13.36-76.62 0-30.07 5.15-57.16 13.36-76.62 4.1-9.73 8.92-17.41 14.11-22.62 5.18-5.19 10.56-7.76 15.94-7.76 5.38 0 10.76 2.57 15.94 7.76 5.2 5.2 10 12.9 14.11 22.62 8.2 19.46 13.36 46.55 13.36 76.62Z" stroke="#D8E6F1" stroke-width="6"/></svg>